<?xml version="1.0" encoding="UTF-8" standalone="no"?>
<!-- Generator: Adobe Illustrator 15.1.0, SVG Export Plug-In . SVG Version: 6.00 Build 0)  -->

<svg
   xmlns:dc="http://purl.org/dc/elements/1.1/"
   xmlns:cc="http://creativecommons.org/ns#"
   xmlns:rdf="http://www.w3.org/1999/02/22-rdf-syntax-ns#"
   xmlns:svg="http://www.w3.org/2000/svg"
   xmlns="http://www.w3.org/2000/svg"
   xmlns:sodipodi="http://sodipodi.sourceforge.net/DTD/sodipodi-0.dtd"
   xmlns:inkscape="http://www.inkscape.org/namespaces/inkscape"
   version="1.1"
   id="Layer_1"
   x="0px"
   y="0px"
   width="100px"
   height="100px"
   viewBox="0 0 100 100"
   enable-background="new 0 0 100 100"
   xml:space="preserve"
   inkscape:version="0.48.4 r9939"
   sodipodi:docname="clear-night.svg"><metadata
     id="metadata2993"><rdf:RDF><cc:Work
         rdf:about=""><dc:format>image/svg+xml</dc:format><dc:type
           rdf:resource="http://purl.org/dc/dcmitype/StillImage" /></cc:Work></rdf:RDF></metadata><defs
     id="defs2991" /><sodipodi:namedview
     pagecolor="#ffffff"
     bordercolor="#666666"
     borderopacity="1"
     objecttolerance="10"
     gridtolerance="10"
     guidetolerance="10"
     inkscape:pageopacity="0"
     inkscape:pageshadow="2"
     inkscape:window-width="1048"
     inkscape:window-height="480"
     id="namedview2989"
     showgrid="false"
     inkscape:zoom="2.36"
     inkscape:cx="50"
     inkscape:cy="50"
     inkscape:window-x="570"
     inkscape:window-y="307"
     inkscape:window-maximized="0"
     inkscape:current-layer="Layer_1" /><path
     clip-rule="evenodd"
     d="M 50.002084,100 C 22.386132,100 0,77.613868 0,50.002084 0,22.386132 22.386132,0 50.002084,0 53.14831,0 56.21536,0.32504063 59.199067,0.88344376 58.648998,3.2837438 58.332292,5.7715548 58.332292,8.3343751 c 0,18.4106349 14.926865,33.3333329 33.3375,33.3333329 2.56282,0 5.050631,-0.316706 7.450931,-0.866775 C 99.674959,43.788807 100,46.85169 100,50.002084 100,77.613868 77.613868,100 50.002084,100 z M 42.551152,17.531358 C 27.732633,20.919282 16.66875,34.154269 16.66875,50.002084 c 0,18.406467 14.922699,33.333333 33.333334,33.333333 15.843647,0 29.078634,-11.063883 32.466558,-25.882402 C 62.241113,53.685877 46.314123,37.758887 42.551152,17.531358 z"
     id="path2987"
     inkscape:connector-curvature="0"
     style="fill-rule:evenodd" /></svg>