<?xml version="1.0" encoding="UTF-8" standalone="no"?>
<!-- Generator: Adobe Illustrator 15.1.0, SVG Export Plug-In . SVG Version: 6.00 Build 0)  -->

<svg
   xmlns:dc="http://purl.org/dc/elements/1.1/"
   xmlns:cc="http://creativecommons.org/ns#"
   xmlns:rdf="http://www.w3.org/1999/02/22-rdf-syntax-ns#"
   xmlns:svg="http://www.w3.org/2000/svg"
   xmlns="http://www.w3.org/2000/svg"
   xmlns:sodipodi="http://sodipodi.sourceforge.net/DTD/sodipodi-0.dtd"
   xmlns:inkscape="http://www.inkscape.org/namespaces/inkscape"
   version="1.1"
   id="Layer_1"
   x="0px"
   y="0px"
   width="100px"
   height="100px"
   viewBox="0 0 100 100"
   enable-background="new 0 0 100 100"
   xml:space="preserve"
   inkscape:version="0.48.4 r9939"
   sodipodi:docname="clear-day.svg"><metadata
     id="metadata9"><rdf:RDF><cc:Work
         rdf:about=""><dc:format>image/svg+xml</dc:format><dc:type
           rdf:resource="http://purl.org/dc/dcmitype/StillImage" /></cc:Work></rdf:RDF></metadata><defs
     id="defs7" /><sodipodi:namedview
     pagecolor="#ffffff"
     bordercolor="#666666"
     borderopacity="1"
     objecttolerance="10"
     gridtolerance="10"
     guidetolerance="10"
     inkscape:pageopacity="0"
     inkscape:pageshadow="2"
     inkscape:window-width="1133"
     inkscape:window-height="480"
     id="namedview5"
     showgrid="false"
     inkscape:zoom="2.36"
     inkscape:cx="50"
     inkscape:cy="50"
     inkscape:window-x="552"
     inkscape:window-y="296"
     inkscape:window-maximized="0"
     inkscape:current-layer="Layer_1" /><path
     clip-rule="evenodd"
     d="m 95.832812,54.165104 h -8.330208 c -2.302371,0 -4.167187,-1.864816 -4.167187,-4.165104 0,-2.300288 1.864816,-4.167188 4.167187,-4.167188 h 8.330208 C 98.135184,45.832812 100,47.699712 100,50 c 0,2.300288 -1.862733,4.165104 -4.167188,4.165104 z M 79.466183,26.430387 c -1.627286,1.627287 -4.269283,1.627287 -5.892403,0 -1.627287,-1.627287 -1.627287,-4.265116 0,-5.892403 l 5.892403,-5.892403 c 1.62312,-1.627287 4.265117,-1.627287 5.892403,0 1.62312,1.627286 1.62312,4.265116 0,5.892403 l -5.892403,5.892403 z M 50.002084,74.998958 C 36.194108,74.998958 24.998958,63.805892 24.998958,50 c 0,-13.807976 11.193066,-25.001042 25.003126,-25.001042 13.807976,0 24.998958,11.193066 24.998958,25.001042 0,13.805892 -11.190982,24.998958 -24.998958,24.998958 z m 0,-41.665625 c -9.205318,0 -16.668751,7.46135 -16.668751,16.666667 0,9.203234 7.465517,16.666667 16.668751,16.666667 9.203233,0 16.664583,-7.463433 16.664583,-16.666667 0,-9.205317 -7.459266,-16.666667 -16.664583,-16.666667 z m 0,-16.666666 c -2.302372,0 -4.167188,-1.8669 -4.167188,-4.167188 V 4.1671876 C 45.834896,1.8669 47.699712,0 50.002084,0 c 2.300287,0 4.167187,1.8669 4.167187,4.1671876 v 8.3322914 c 0,2.300288 -1.868983,4.167188 -4.167187,4.167188 z m -29.4641,9.76372 -5.892403,-5.892403 c -1.627287,-1.627287 -1.627287,-4.265117 0,-5.892403 1.627286,-1.627287 4.265116,-1.627287 5.892403,0 l 5.892403,5.892403 c 1.627287,1.627287 1.627287,4.265116 0,5.892403 -1.627287,1.627287 -4.265116,1.627287 -5.892403,0 z M 16.666667,50 c 0,2.300288 -1.8669,4.165104 -4.167188,4.165104 H 4.165104 C 1.8648164,54.165104 0,52.300288 0,50 0,47.699712 1.8669,45.832812 4.165104,45.832812 h 8.334375 c 2.302371,0 4.167188,1.8669 4.167188,4.167188 z m 3.871317,23.569613 c 1.627287,-1.625203 4.265116,-1.625203 5.892403,0 1.627287,1.627287 1.627287,4.2672 0,5.892403 l -5.892403,5.892403 c -1.627287,1.627287 -4.265117,1.627287 -5.892403,0 -1.627287,-1.625203 -1.627287,-4.265116 0,-5.892403 l 5.892403,-5.892403 z m 29.4641,9.76372 c 2.300287,0 4.167187,1.864817 4.167187,4.165104 v 8.334375 c 0,2.300288 -1.8669,4.167188 -4.167187,4.167188 -2.302372,0 -4.167188,-1.8669 -4.167188,-4.167188 v -8.334375 c 0,-2.300287 1.864816,-4.165104 4.167188,-4.165104 z m 29.464099,-9.76372 5.892403,5.892403 c 1.62312,1.627287 1.62312,4.2672 0,5.892403 -1.627286,1.627287 -4.269283,1.627287 -5.892403,0 L 73.57378,79.462016 c -1.627287,-1.625203 -1.627287,-4.265116 0,-5.892403 1.62312,-1.627287 4.263033,-1.627287 5.892403,0 z"
     id="path3"
     inkscape:connector-curvature="0"
     style="fill-rule:evenodd" /></svg>