<?xml version="1.0" encoding="UTF-8" standalone="no"?>
<!-- Generator: Adobe Illustrator 15.1.0, SVG Export Plug-In . SVG Version: 6.00 Build 0)  -->

<svg
   xmlns:dc="http://purl.org/dc/elements/1.1/"
   xmlns:cc="http://creativecommons.org/ns#"
   xmlns:rdf="http://www.w3.org/1999/02/22-rdf-syntax-ns#"
   xmlns:svg="http://www.w3.org/2000/svg"
   xmlns="http://www.w3.org/2000/svg"
   xmlns:sodipodi="http://sodipodi.sourceforge.net/DTD/sodipodi-0.dtd"
   xmlns:inkscape="http://www.inkscape.org/namespaces/inkscape"
   version="1.1"
   id="Layer_1"
   x="0px"
   y="0px"
   width="100px"
   height="100px"
   viewBox="0 0 100 100"
   enable-background="new 0 0 100 100"
   xml:space="preserve"
   inkscape:version="0.48.4 r9939"
   sodipodi:docname="cloudy.svg"><metadata
     id="metadata3002"><rdf:RDF><cc:Work
         rdf:about=""><dc:format>image/svg+xml</dc:format><dc:type
           rdf:resource="http://purl.org/dc/dcmitype/StillImage" /></cc:Work></rdf:RDF></metadata><defs
     id="defs3000" /><sodipodi:namedview
     pagecolor="#ffffff"
     bordercolor="#666666"
     borderopacity="1"
     objecttolerance="10"
     gridtolerance="10"
     guidetolerance="10"
     inkscape:pageopacity="0"
     inkscape:pageshadow="2"
     inkscape:window-width="987"
     inkscape:window-height="480"
     id="namedview2998"
     showgrid="false"
     inkscape:zoom="2.36"
     inkscape:cx="50"
     inkscape:cy="50"
     inkscape:window-x="635"
     inkscape:window-y="265"
     inkscape:window-maximized="0"
     inkscape:current-layer="Layer_1" /><path
     clip-rule="evenodd"
     d="M 36.363223,85 C 16.281396,85 0,68.720877 0,48.636777 0,28.552676 16.281396,12.273554 36.363223,12.273554 c 13.647005,0 25.523355,7.528128 31.742244,18.6453 1.509262,-0.256847 3.041254,-0.465962 4.620979,-0.465962 C 87.789522,30.452892 100,42.665644 100,57.728719 100,72.787249 87.789522,85 72.726446,85 66.418911,85 43.632231,85 36.363223,85 z m 36.363223,-9.091942 c 10.04205,0 18.183885,-8.141835 18.183885,-18.179339 0,-10.04205 -8.141835,-18.183884 -18.183885,-18.183884 -3.636777,0 -7.005341,1.093306 -9.848846,2.934424 C 60.079554,30.396068 49.298784,21.363223 36.363223,21.363223 c -15.060802,0 -27.2712807,12.210479 -27.2712807,27.273554 0,15.060802 12.2104787,27.271281 27.2712807,27.271281 8.221389,0 29.50108,0 36.363223,0 z"
     id="path2996"
     inkscape:connector-curvature="0"
     style="fill-rule:evenodd" /></svg>