<?xml version="1.0" encoding="UTF-8" standalone="no"?>
<!-- Generator: Adobe Illustrator 15.1.0, SVG Export Plug-In . SVG Version: 6.00 Build 0)  -->

<svg
   xmlns:dc="http://purl.org/dc/elements/1.1/"
   xmlns:cc="http://creativecommons.org/ns#"
   xmlns:rdf="http://www.w3.org/1999/02/22-rdf-syntax-ns#"
   xmlns:svg="http://www.w3.org/2000/svg"
   xmlns="http://www.w3.org/2000/svg"
   xmlns:sodipodi="http://sodipodi.sourceforge.net/DTD/sodipodi-0.dtd"
   xmlns:inkscape="http://www.inkscape.org/namespaces/inkscape"
   version="1.1"
   id="Layer_1"
   x="0px"
   y="0px"
   width="100px"
   height="100px"
   viewBox="0 0 100 100"
   enable-background="new 0 0 100 100"
   xml:space="preserve"
   inkscape:version="0.48.4 r9939"
   sodipodi:docname="default.svg"><metadata
     id="metadata3011"><rdf:RDF><cc:Work
         rdf:about=""><dc:format>image/svg+xml</dc:format><dc:type
           rdf:resource="http://purl.org/dc/dcmitype/StillImage" /></cc:Work></rdf:RDF></metadata><defs
     id="defs3009" /><sodipodi:namedview
     pagecolor="#ffffff"
     bordercolor="#666666"
     borderopacity="1"
     objecttolerance="10"
     gridtolerance="10"
     guidetolerance="10"
     inkscape:pageopacity="0"
     inkscape:pageshadow="2"
     inkscape:window-width="1058"
     inkscape:window-height="480"
     id="namedview3007"
     showgrid="false"
     inkscape:zoom="2.36"
     inkscape:cx="50"
     inkscape:cy="50"
     inkscape:window-x="649"
     inkscape:window-y="307"
     inkscape:window-maximized="0"
     inkscape:current-layer="Layer_1" /><path
     clip-rule="evenodd"
     d="m 72.724173,72.728719 c -0.636436,0 -1.475167,0 -2.41391,0 l 8.148653,-10.028412 c 7.230367,-2.402546 12.449142,-9.212411 12.449142,-17.247415 0,-10.04205 -8.139562,-18.179338 -18.181612,-18.179338 -3.63905,0 -7.007614,1.091033 -9.848846,2.932151 C 60.077282,18.122514 49.298784,9.0896693 36.363223,9.0896693 c -15.060802,0 -27.2712807,12.2104787 -27.2712807,27.2758267 0,12.378679 8.2554837,22.816229 19.5567677,26.148426 l -3.066257,8.585067 C 10.762587,66.505285 0,52.692351 0,36.363223 0,16.281396 16.281396,-0.00227299 36.363223,-0.00227299 c 13.647005,0 25.523355,7.52812819 31.742244,18.64757399 1.509262,-0.259121 3.038981,-0.465962 4.620979,-0.465962 15.063076,0 27.273554,12.208205 27.273554,27.27128 0,15.063076 -12.212751,27.2781 -27.275827,27.2781 z M 45.452892,40.906921 h 22.72531 L 54.542562,63.636777 H 70.451188 L 40.906921,100 49.089669,72.728719 H 34.087965 L 45.452892,40.906921 z"
     id="path3005"
     inkscape:connector-curvature="0"
     style="fill-rule:evenodd" /></svg>