<?xml version="1.0" encoding="UTF-8" standalone="no"?>
<!-- Generator: Adobe Illustrator 15.1.0, SVG Export Plug-In . SVG Version: 6.00 Build 0)  -->

<svg
   xmlns:dc="http://purl.org/dc/elements/1.1/"
   xmlns:cc="http://creativecommons.org/ns#"
   xmlns:rdf="http://www.w3.org/1999/02/22-rdf-syntax-ns#"
   xmlns:svg="http://www.w3.org/2000/svg"
   xmlns="http://www.w3.org/2000/svg"
   xmlns:sodipodi="http://sodipodi.sourceforge.net/DTD/sodipodi-0.dtd"
   xmlns:inkscape="http://www.inkscape.org/namespaces/inkscape"
   version="1.1"
   id="Layer_1"
   x="0px"
   y="0px"
   width="100px"
   height="100px"
   viewBox="0 0 100 100"
   enable-background="new 0 0 100 100"
   xml:space="preserve"
   inkscape:version="0.48.4 r9939"
   sodipodi:docname="fog.svg"><metadata
     id="metadata3041"><rdf:RDF><cc:Work
         rdf:about=""><dc:format>image/svg+xml</dc:format><dc:type
           rdf:resource="http://purl.org/dc/dcmitype/StillImage" /></cc:Work></rdf:RDF></metadata><defs
     id="defs3039" /><sodipodi:namedview
     pagecolor="#ffffff"
     bordercolor="#666666"
     borderopacity="1"
     objecttolerance="10"
     gridtolerance="10"
     guidetolerance="10"
     inkscape:pageopacity="0"
     inkscape:pageshadow="2"
     inkscape:window-width="1045"
     inkscape:window-height="480"
     id="namedview3037"
     showgrid="false"
     inkscape:zoom="2.36"
     inkscape:cx="50"
     inkscape:cy="50"
     inkscape:window-x="211"
     inkscape:window-y="288"
     inkscape:window-maximized="0"
     inkscape:current-layer="Layer_1" /><path
     clip-rule="evenodd"
     d="M 95.454029,76.320661 H 4.5459711 C 2.0365951,76.320661 0,74.284066 0,71.77469 0,69.263041 2.0365951,67.228719 4.5459711,67.228719 H 95.454029 c 2.509376,0 4.545971,2.034322 4.545971,4.545971 0,2.507103 -2.034322,4.545971 -4.545971,4.545971 z m 0,-18.183884 H 4.5459711 C 2.0365951,58.136777 0,56.102455 0,53.590806 0,51.08143 2.0365951,49.044835 4.5459711,49.044835 H 95.454029 c 2.509376,0 4.545971,2.036595 4.545971,4.545971 0,2.511649 -2.034322,4.545971 -4.545971,4.545971 z M 72.726446,30.865496 c -3.63905,0 -7.007614,1.091033 -9.848846,2.934424 C 60.077282,21.714456 49.298784,12.681612 36.363223,12.681612 c -15.060802,0 -27.2712807,12.212751 -27.2712807,27.275826 H 0 C 0,19.875611 16.281396,3.5919423 36.363223,3.5919423 c 13.647005,0 25.523355,7.5281277 31.742244,18.6475737 1.509262,-0.256848 3.038981,-0.465962 4.620979,-0.465962 11.869531,0 21.938857,7.596318 25.68701,18.183884 h -9.95795 C 85.309694,34.525003 79.45221,30.865496 72.726446,30.865496 z M 4.5459711,85.408058 H 95.454029 C 97.963405,85.408058 100,87.444653 100,89.954029 100,92.465678 97.963405,94.5 95.454029,94.5 H 4.5459711 C 2.0365951,94.5 0,92.465678 0,89.954029 0,87.444653 2.0343221,85.408058 4.5459711,85.408058 z"
     id="path3035"
     inkscape:connector-curvature="0"
     style="fill-rule:evenodd" /></svg>