<?xml version="1.0" encoding="UTF-8" standalone="no"?>
<!-- Generator: Adobe Illustrator 15.1.0, SVG Export Plug-In . SVG Version: 6.00 Build 0)  -->

<svg
   xmlns:dc="http://purl.org/dc/elements/1.1/"
   xmlns:cc="http://creativecommons.org/ns#"
   xmlns:rdf="http://www.w3.org/1999/02/22-rdf-syntax-ns#"
   xmlns:svg="http://www.w3.org/2000/svg"
   xmlns="http://www.w3.org/2000/svg"
   xmlns:sodipodi="http://sodipodi.sourceforge.net/DTD/sodipodi-0.dtd"
   xmlns:inkscape="http://www.inkscape.org/namespaces/inkscape"
   version="1.1"
   id="Layer_1"
   x="0px"
   y="0px"
   width="100px"
   height="100px"
   viewBox="0 0 100 100"
   enable-background="new 0 0 100 100"
   xml:space="preserve"
   inkscape:version="0.48.4 r9939"
   sodipodi:docname="hail.svg"><metadata
     id="metadata3050"><rdf:RDF><cc:Work
         rdf:about=""><dc:format>image/svg+xml</dc:format><dc:type
           rdf:resource="http://purl.org/dc/dcmitype/StillImage" /></cc:Work></rdf:RDF></metadata><defs
     id="defs3048" /><sodipodi:namedview
     pagecolor="#ffffff"
     bordercolor="#666666"
     borderopacity="1"
     objecttolerance="10"
     gridtolerance="10"
     guidetolerance="10"
     inkscape:pageopacity="0"
     inkscape:pageshadow="2"
     inkscape:window-width="1084"
     inkscape:window-height="480"
     id="namedview3046"
     showgrid="false"
     inkscape:zoom="2.36"
     inkscape:cx="50"
     inkscape:cy="50"
     inkscape:window-x="662"
     inkscape:window-y="351"
     inkscape:window-maximized="0"
     inkscape:current-layer="Layer_1" /><path
     clip-rule="evenodd"
     d="m 95.744138,81.97655 c -2.349237,0 -4.253735,-1.904498 -4.253735,-4.255862 0,-2.349236 1.904498,-4.255863 4.253735,-4.255863 2.349236,0 4.255862,1.906627 4.255862,4.255863 0,2.351364 -1.904498,4.255862 -4.255862,4.255862 z M 76.594884,67.723667 V 58.4012 c 5.083628,-2.942929 8.511725,-8.428735 8.511725,-14.725284 0,-9.399072 -7.620121,-17.021322 -17.021322,-17.021322 -3.406817,0 -6.560411,1.021407 -9.222453,2.747159 C 56.24335,18.087543 46.1527,9.633272 34.042644,9.633272 c -14.1018,0 -25.533047,11.431247 -25.533047,25.530919 0,7.554156 3.300421,14.316721 8.511725,18.991786 v 10.46091 C 6.8561944,58.726774 0,47.759416 0,35.164191 0,16.363919 15.240243,1.1236754 34.042644,1.1236754 c 12.776099,0 23.894539,7.0455802 29.716559,17.4554196 1.412947,-0.240456 2.845044,-0.436226 4.326084,-0.436226 14.099673,0 25.530919,11.431247 25.530919,25.533047 0,11.114185 -7.111546,20.54092 -17.021322,24.047751 z M 6.3837937,84.104481 c 2.349236,0 4.2537343,1.904499 4.2537343,4.255863 0,2.349236 -1.9044983,4.255862 -4.2537343,4.255862 -2.3492361,0 -4.2558625,-1.906626 -4.2558625,-4.255862 0,-2.353492 1.9044985,-4.255863 4.2558625,-4.255863 z M 27.65885,47.933906 c 0,-2.349236 -0.221305,-4.255862 2.127931,-4.255862 2.349236,0 2.127932,1.906626 2.127932,4.255862 V 99 H 27.65885 l 0,0 0,0 c 0,-4.7006 -3.808997,-8.511725 -8.509597,-8.511725 v -4.255862 c 3.283398,0 6.249734,1.276758 8.509597,3.313189 V 47.933906 z m 19.149253,29.786782 c -2.349236,0 -2.127931,-1.904499 -2.127931,-4.255863 V 56.445631 c 0,-2.351364 -0.221305,-4.255862 2.127931,-4.255862 2.349236,0 2.127931,1.904498 2.127931,4.255862 v 17.019194 c 0,2.351364 0.221305,4.255863 -2.127931,4.255863 z m 0,8.511725 c 2.349236,0 4.255863,1.904498 4.255863,4.255862 0,2.349236 -1.906627,4.255863 -4.255863,4.255863 -2.349236,0 -4.255862,-1.906627 -4.255862,-4.255863 0,-2.353492 1.906626,-4.255862 4.255862,-4.255862 z M 63.829425,43.678044 c 2.349236,0 2.127931,1.906626 2.127931,4.255862 v 38.336809 c 3.879219,-5.179384 10.050219,-8.550027 17.021322,-8.550027 v 4.255862 c -9.4012,0 -17.021322,7.62225 -17.021322,17.02345 h -4.255862 c 0,-0.580925 0.04256,-1.151211 0.08725,-1.71724 -0.114908,-0.71073 -0.08725,-1.583181 -0.08725,-2.538622 V 47.933906 c 0,-2.349236 -0.221305,-4.255862 2.127931,-4.255862 z"
     id="path3044"
     inkscape:connector-curvature="0"
     style="fill-rule:evenodd" /></svg>