<?xml version="1.0" encoding="UTF-8" standalone="no"?>
<!-- Generator: Adobe Illustrator 15.1.0, SVG Export Plug-In . SVG Version: 6.00 Build 0)  -->

<svg
   xmlns:dc="http://purl.org/dc/elements/1.1/"
   xmlns:cc="http://creativecommons.org/ns#"
   xmlns:rdf="http://www.w3.org/1999/02/22-rdf-syntax-ns#"
   xmlns:svg="http://www.w3.org/2000/svg"
   xmlns="http://www.w3.org/2000/svg"
   xmlns:sodipodi="http://sodipodi.sourceforge.net/DTD/sodipodi-0.dtd"
   xmlns:inkscape="http://www.inkscape.org/namespaces/inkscape"
   version="1.1"
   id="Layer_1"
   x="0px"
   y="0px"
   width="100px"
   height="100px"
   viewBox="0 0 100 100"
   enable-background="new 0 0 100 100"
   xml:space="preserve"
   inkscape:version="0.48.4 r9939"
   sodipodi:docname="partly-cloudy-day.svg"><metadata
     id="metadata3059"><rdf:RDF><cc:Work
         rdf:about=""><dc:format>image/svg+xml</dc:format><dc:type
           rdf:resource="http://purl.org/dc/dcmitype/StillImage" /></cc:Work></rdf:RDF></metadata><defs
     id="defs3057" /><sodipodi:namedview
     pagecolor="#ffffff"
     bordercolor="#666666"
     borderopacity="1"
     objecttolerance="10"
     gridtolerance="10"
     guidetolerance="10"
     inkscape:pageopacity="0"
     inkscape:pageshadow="2"
     inkscape:window-width="1050"
     inkscape:window-height="480"
     id="namedview3055"
     showgrid="false"
     inkscape:zoom="2.36"
     inkscape:cx="50"
     inkscape:cy="50"
     inkscape:window-x="641"
     inkscape:window-y="263"
     inkscape:window-maximized="0"
     inkscape:current-layer="Layer_1" /><path
     clip-rule="evenodd"
     d="m 96.295816,53.257682 h -7.408368 c -2.044709,0 -3.704184,-1.657623 -3.704184,-3.704184 0,-2.04471 1.659475,-3.70048 3.704184,-3.70048 h 7.408368 c 2.04471,0 3.704184,1.657622 3.704184,3.70048 0,2.046561 -1.659474,3.704184 -3.704184,3.704184 z M 81.74393,28.602634 c -1.446484,1.446483 -3.791232,1.446483 -5.237716,0 -1.446484,-1.444632 -1.446484,-3.791233 0,-5.235864 l 5.237716,-5.237716 c 1.446484,-1.446484 3.791232,-1.446484 5.237716,0 1.446484,1.444631 1.446484,3.791232 0,5.237716 l -5.237716,5.235864 z m -5.458115,28.905599 0,0 c 3.239309,3.863463 5.19697,8.834478 5.19697,14.270368 C 81.482785,84.04871 71.533347,94 59.259534,94 54.119979,94 35.550905,94 29.629767,94 13.266535,94 0,80.735318 0,64.370233 0,48.005149 13.266535,34.740466 29.629767,34.740466 c 2.911488,0 5.722964,0.429686 8.377012,1.211268 4.065341,-5.235863 10.405052,-8.619635 17.548571,-8.619635 12.273813,0 22.223251,9.95129 22.223251,22.221399 -0.0019,2.805919 -0.544515,5.484044 -1.492786,7.954735 z m -68.8792993,6.862 c 0,12.273813 9.9475853,22.221399 22.2213993,22.221399 6.697164,0 24.038301,0 29.629767,0 8.182542,0 14.814883,-6.634193 14.814883,-14.813031 0,-8.182542 -6.632341,-14.816736 -14.814883,-14.816736 -2.963348,0 -5.71,0.892709 -8.025115,2.391051 C 48.952642,49.507195 40.16817,42.148834 29.627915,42.148834 c -12.273814,0 -22.2213993,9.947586 -22.2213993,22.221399 z M 55.553498,34.740466 c -4.096828,0 -7.806568,1.663179 -10.486545,4.350564 4.333895,2.659604 7.936214,6.395274 10.425426,10.842147 1.229789,-0.209287 2.476247,-0.379679 3.765303,-0.379679 3.935695,0 7.628766,1.035319 10.834737,2.828144 l 0,0 c 0.177801,-0.914933 0.277814,-1.8595 0.277814,-2.828144 0,-8.178838 -6.634193,-14.813032 -14.816735,-14.813032 z m 0,-14.816735 c -2.04471,0 -3.702332,-1.657622 -3.702332,-3.702332 V 8.814883 c 0,-2.046561 1.659474,-3.704183 3.702332,-3.704183 2.046561,0 3.704184,1.657622 3.704184,3.704183 v 7.406516 c 0,2.046562 -1.655771,3.702332 -3.704184,3.702332 z m -26.18858,8.678903 -5.235864,-5.235864 c -1.446484,-1.446484 -1.446484,-3.793085 0,-5.237716 1.444631,-1.446484 3.791232,-1.446484 5.235864,0 l 5.237716,5.237716 c 1.446483,1.444631 1.446483,3.791232 0,5.235864 -1.444632,1.446483 -3.791233,1.446483 -5.237716,0 z"
     id="path3053"
     inkscape:connector-curvature="0"
     style="fill-rule:evenodd" /></svg>