<?xml version="1.0" encoding="UTF-8" standalone="no"?>
<!-- Generator: Adobe Illustrator 15.1.0, SVG Export Plug-In . SVG Version: 6.00 Build 0)  -->

<svg
   xmlns:dc="http://purl.org/dc/elements/1.1/"
   xmlns:cc="http://creativecommons.org/ns#"
   xmlns:rdf="http://www.w3.org/1999/02/22-rdf-syntax-ns#"
   xmlns:svg="http://www.w3.org/2000/svg"
   xmlns="http://www.w3.org/2000/svg"
   xmlns:sodipodi="http://sodipodi.sourceforge.net/DTD/sodipodi-0.dtd"
   xmlns:inkscape="http://www.inkscape.org/namespaces/inkscape"
   version="1.1"
   id="Layer_1"
   x="0px"
   y="0px"
   width="100px"
   height="100px"
   viewBox="0 0 100 100"
   enable-background="new 0 0 100 100"
   xml:space="preserve"
   inkscape:version="0.48.4 r9939"
   sodipodi:docname="partly-cloudy-night.svg"><metadata
     id="metadata3068"><rdf:RDF><cc:Work
         rdf:about=""><dc:format>image/svg+xml</dc:format><dc:type
           rdf:resource="http://purl.org/dc/dcmitype/StillImage" /></cc:Work></rdf:RDF></metadata><defs
     id="defs3066" /><sodipodi:namedview
     pagecolor="#ffffff"
     bordercolor="#666666"
     borderopacity="1"
     objecttolerance="10"
     gridtolerance="10"
     guidetolerance="10"
     inkscape:pageopacity="0"
     inkscape:pageshadow="2"
     inkscape:window-width="1061"
     inkscape:window-height="480"
     id="namedview3064"
     showgrid="false"
     inkscape:zoom="2.36"
     inkscape:cx="50"
     inkscape:cy="50"
     inkscape:window-x="575"
     inkscape:window-y="236"
     inkscape:window-maximized="0"
     inkscape:current-layer="Layer_1" /><path
     clip-rule="evenodd"
     d="m 92.934614,51.036627 0,0 c 3.040405,4.331689 4.842867,9.596835 4.842867,15.297595 C 97.777481,81.058408 85.840334,93 71.111704,93 64.944215,93 42.661244,93 35.555852,93 15.917678,93 0,77.082322 0,57.444148 0,37.805974 15.917678,21.888296 35.555852,21.888296 c 4.449482,0 8.698938,0.833445 12.623905,2.326977 l 0,0 C 51.813575,13.809441 61.688225,6.330666 73.334222,6.330666 c 1.678002,0 3.313776,0.173357 4.905099,0.471174 -0.29115,1.277948 -0.460062,2.607015 -0.460062,3.973863 0,9.819087 7.958839,17.777926 17.775704,17.777926 1.369071,0 2.695915,-0.168911 3.976086,-0.462283 C 99.826644,29.684891 100,31.320665 100,32.998666 99.9978,39.961817 97.306308,46.287105 92.934614,51.036627 z M 8.8878517,57.444148 c 0,14.728631 11.9371473,26.665778 26.6657773,26.665778 8.036627,0 28.846069,0 35.555852,0 9.819087,0 17.777926,-7.961062 17.777926,-17.775704 0,-9.819087 -7.958839,-17.780148 -17.777926,-17.780148 -3.556029,0 -6.852024,1.071254 -9.632395,2.869271 C 58.741165,39.608437 48.201982,30.776148 35.553629,30.776148 c -14.72863,0 -26.6657773,11.93937 -26.6657773,26.668 z M 52.335867,26.115527 c 0.0022,0 0.0044,0 0.0044,0 0,0 -0.0022,0 -0.0044,0 z m 17.02227,-10.434725 c -6.445304,1.475752 -11.501534,6.467529 -13.168423,12.835045 l 0,0 c 4.262791,3.049295 7.829933,7.005378 10.401387,11.601546 1.475752,-0.251144 2.971507,-0.455616 4.51838,-0.455616 5.818554,0 11.185936,1.889141 15.568743,5.04734 l 0,0 c 1.906921,-2.175846 3.30044,-4.81842 3.969418,-7.73881 C 79.861759,34.96115 71.367293,26.473352 69.358137,15.680802 z"
     id="path3062"
     inkscape:connector-curvature="0"
     style="fill-rule:evenodd" /></svg>