<?xml version="1.0" encoding="UTF-8" standalone="no"?>
<!-- Generator: Adobe Illustrator 15.1.0, SVG Export Plug-In . SVG Version: 6.00 Build 0)  -->

<svg
   xmlns:dc="http://purl.org/dc/elements/1.1/"
   xmlns:cc="http://creativecommons.org/ns#"
   xmlns:rdf="http://www.w3.org/1999/02/22-rdf-syntax-ns#"
   xmlns:svg="http://www.w3.org/2000/svg"
   xmlns="http://www.w3.org/2000/svg"
   xmlns:sodipodi="http://sodipodi.sourceforge.net/DTD/sodipodi-0.dtd"
   xmlns:inkscape="http://www.inkscape.org/namespaces/inkscape"
   version="1.1"
   id="Layer_1"
   x="0px"
   y="0px"
   width="100px"
   height="100px"
   viewBox="0 0 100 100"
   enable-background="new 0 0 100 100"
   xml:space="preserve"
   inkscape:version="0.48.4 r9939"
   sodipodi:docname="rain.svg"><metadata
     id="metadata3077"><rdf:RDF><cc:Work
         rdf:about=""><dc:format>image/svg+xml</dc:format><dc:type
           rdf:resource="http://purl.org/dc/dcmitype/StillImage" /></cc:Work></rdf:RDF></metadata><defs
     id="defs3075" /><sodipodi:namedview
     pagecolor="#ffffff"
     bordercolor="#666666"
     borderopacity="1"
     objecttolerance="10"
     gridtolerance="10"
     guidetolerance="10"
     inkscape:pageopacity="0"
     inkscape:pageshadow="2"
     inkscape:window-width="1033"
     inkscape:window-height="480"
     id="namedview3073"
     showgrid="false"
     inkscape:zoom="2.36"
     inkscape:cx="50"
     inkscape:cy="50"
     inkscape:window-x="682"
     inkscape:window-y="263"
     inkscape:window-maximized="0"
     inkscape:current-layer="Layer_1" /><path
     clip-rule="evenodd"
     d="m 81.818388,71.13763 v -9.95795 c 5.430163,-3.143539 9.091943,-9.003296 9.091943,-15.729061 0,-10.039777 -8.141834,-18.181611 -18.183884,-18.181611 -3.636778,0 -7.005342,1.091033 -9.848848,2.934424 C 60.079555,18.117968 49.298784,9.0873962 36.363223,9.0873962 c -15.060803,0 -27.2712806,12.2104788 -27.2712806,27.2712818 0,8.069098 3.5254006,15.292646 9.0919426,20.286395 V 67.81907 C 7.3258327,61.527446 0,49.812479 0,36.358678 0,16.276849 16.281396,-0.00227317 36.363223,-0.00227317 c 13.647005,0 25.523355,7.52585607 31.742244,18.64530017 1.509262,-0.256846 3.041254,-0.465961 4.62098,-0.465961 C 87.789521,18.177066 100,30.387544 100,45.450619 100,57.322423 92.405955,67.391749 81.818388,71.13763 z M 31.819525,45.452892 c 2.509376,0 4.543698,2.036596 4.543698,4.545971 v 36.363223 c 0,2.51165 -2.034322,4.545971 -4.543698,4.545971 -2.509376,0 -4.545972,-2.034321 -4.545972,-4.545971 V 49.998863 c 0,-2.509375 2.036596,-4.545971 4.545972,-4.545971 z m 18.181612,9.091943 c 2.509375,0 4.545971,2.034322 4.545971,4.545971 v 36.363223 c 0,2.509375 -2.036596,4.545971 -4.545971,4.545971 -2.509376,0 -4.545972,-2.036596 -4.545972,-4.545971 V 59.090806 c 0,-2.513922 2.036596,-4.545971 4.545972,-4.545971 z m 18.181612,-9.091943 c 2.509375,0 4.543698,2.036596 4.543698,4.545971 v 36.363223 c 0,2.51165 -2.034323,4.545971 -4.543698,4.545971 -2.509377,0 -4.545972,-2.034321 -4.545972,-4.545971 V 49.998863 c 0,-2.509375 2.036595,-4.545971 4.545972,-4.545971 z"
     id="path3071"
     inkscape:connector-curvature="0"
     style="fill-rule:evenodd" /></svg>