<?xml version="1.0" encoding="UTF-8" standalone="no"?>
<!-- Generator: Adobe Illustrator 15.1.0, SVG Export Plug-In . SVG Version: 6.00 Build 0)  -->

<svg
   xmlns:dc="http://purl.org/dc/elements/1.1/"
   xmlns:cc="http://creativecommons.org/ns#"
   xmlns:rdf="http://www.w3.org/1999/02/22-rdf-syntax-ns#"
   xmlns:svg="http://www.w3.org/2000/svg"
   xmlns="http://www.w3.org/2000/svg"
   xmlns:sodipodi="http://sodipodi.sourceforge.net/DTD/sodipodi-0.dtd"
   xmlns:inkscape="http://www.inkscape.org/namespaces/inkscape"
   version="1.1"
   id="Layer_1"
   x="0px"
   y="0px"
   width="100px"
   height="100px"
   viewBox="0 0 100 100"
   enable-background="new 0 0 100 100"
   xml:space="preserve"
   inkscape:version="0.48.4 r9939"
   sodipodi:docname="snow.svg"><metadata
     id="metadata3086"><rdf:RDF><cc:Work
         rdf:about=""><dc:format>image/svg+xml</dc:format><dc:type
           rdf:resource="http://purl.org/dc/dcmitype/StillImage" /></cc:Work></rdf:RDF></metadata><defs
     id="defs3084" /><sodipodi:namedview
     pagecolor="#ffffff"
     bordercolor="#666666"
     borderopacity="1"
     objecttolerance="10"
     gridtolerance="10"
     guidetolerance="10"
     inkscape:pageopacity="0"
     inkscape:pageshadow="2"
     inkscape:window-width="935"
     inkscape:window-height="480"
     id="namedview3082"
     showgrid="false"
     inkscape:zoom="2.36"
     inkscape:cx="50"
     inkscape:cy="50"
     inkscape:window-x="640"
     inkscape:window-y="341"
     inkscape:window-maximized="0"
     inkscape:current-layer="Layer_1" /><path
     clip-rule="evenodd"
     d="m 77.2719,78.957176 v -9.278538 c 7.837434,-2.025277 13.638225,-9.119426 13.638225,-17.588762 0,-10.040006 -8.14202,-18.182025 -18.182026,-18.182025 -3.639133,0 -7.010047,1.091058 -9.851344,2.934492 -2.798108,-12.085741 -13.57685,-21.11879 -26.512705,-21.11879 -15.063419,0 -27.2741741,12.21303 -27.2741741,27.276446 0,10.08774 5.4939311,18.877575 13.6359511,23.591854 V 76.695504 C 9.405828,71.297041 0,58.254353 0,42.997727 0,22.915442 16.279493,6.6314042 36.36405,6.6314042 c 13.647315,0 25.523935,7.5282998 31.742965,18.6479968 1.509297,-0.256853 3.036777,-0.465972 4.621084,-0.465972 15.061145,0 27.271901,12.213029 27.271901,27.2719 0,13.517753 -9.833159,24.701096 -22.7281,26.871847 z M 34.252397,65.728099 c 1.25699,-2.175297 4.034643,-2.916307 6.209938,-1.663863 l 4.99159,2.879938 v -5.762149 c 0,-2.509434 2.036642,-4.546075 4.546074,-4.546075 2.509434,0 4.546076,2.036641 4.546076,4.546075 v 5.762149 l 4.989317,-2.882211 c 2.175296,-1.252444 4.955221,-0.511434 6.207664,1.663863 1.25699,2.175297 0.511433,4.955221 -1.66159,6.209937 l -4.99159,2.882212 4.99159,2.882212 c 2.173023,1.256989 2.91858,4.034641 1.66159,6.209938 -1.254717,2.17075 -4.032368,2.916306 -6.207664,1.659316 l -4.989317,-2.877666 v 5.762151 C 54.546075,90.965631 52.509433,93 49.999999,93 47.490567,93 45.453925,90.965631 45.453925,88.453926 v -5.762151 l -4.989317,2.882213 c -2.175296,1.256989 -4.955221,0.511432 -6.209937,-1.659318 -1.254717,-2.175297 -0.511434,-4.955221 1.663863,-6.209938 l 4.989317,-2.884484 -4.989317,-2.882211 c -2.175297,-1.25699 -2.91858,-4.034641 -1.666137,-6.209938 z m 15.747602,13.638223 c 2.509434,0 4.546076,-2.036641 4.546076,-4.546074 0,-2.511706 -2.036642,-4.546075 -4.546076,-4.546075 -2.509432,0 -4.546074,2.034369 -4.546074,4.546075 0,2.50716 2.036642,4.546074 4.546074,4.546074 z"
     id="path3080"
     inkscape:connector-curvature="0"
     style="fill-rule:evenodd" /></svg>