<?xml version="1.0" encoding="UTF-8" standalone="no"?>
<!-- Generator: Adobe Illustrator 16.0.0, SVG Export Plug-In . SVG Version: 6.00 Build 0)  -->

<svg
   xmlns:dc="http://purl.org/dc/elements/1.1/"
   xmlns:cc="http://creativecommons.org/ns#"
   xmlns:rdf="http://www.w3.org/1999/02/22-rdf-syntax-ns#"
   xmlns:svg="http://www.w3.org/2000/svg"
   xmlns="http://www.w3.org/2000/svg"
   xmlns:sodipodi="http://sodipodi.sourceforge.net/DTD/sodipodi-0.dtd"
   xmlns:inkscape="http://www.inkscape.org/namespaces/inkscape"
   version="1.1"
   id="Capa_1"
   x="0px"
   y="0px"
   width="573.699px"
   height="573.699px"
   viewBox="0 0 573.699 573.699"
   style="enable-background:new 0 0 573.699 573.699;"
   xml:space="preserve"
   inkscape:version="0.48.4 r9939"
   sodipodi:docname="thermometer.svg"><metadata
     id="metadata3296"><rdf:RDF><cc:Work
         rdf:about=""><dc:format>image/svg+xml</dc:format><dc:type
           rdf:resource="http://purl.org/dc/dcmitype/StillImage" /></cc:Work></rdf:RDF></metadata><defs
     id="defs3294" /><sodipodi:namedview
     pagecolor="#ffffff"
     bordercolor="#666666"
     borderopacity="1"
     objecttolerance="10"
     gridtolerance="10"
     guidetolerance="10"
     inkscape:pageopacity="0"
     inkscape:pageshadow="2"
     inkscape:window-width="640"
     inkscape:window-height="480"
     id="namedview3292"
     showgrid="false"
     inkscape:zoom="0.41136556"
     inkscape:cx="286.84949"
     inkscape:cy="286.84949"
     inkscape:window-x="65"
     inkscape:window-y="24"
     inkscape:window-maximized="0"
     inkscape:current-layer="Capa_1" /><g
     id="g3254"
     transform="matrix(0.60586213,0,0,0.53389911,106.98093,138.56289)"><g
       id="g3256"><path
         d="m 305.949,424.6 c 0,-1.9 0,-1.9 0,-3.799 V 229.5 c 0,-11.5 -7.6,-19.1 -19.099,-19.1 -11.5,0 -19.1,9.6 -19.1,19.1 v 191.199 c 0,1.9 0,1.9 0,3.801 -23,7.699 -38.2,28.699 -38.2,53.5 0,32.5 24.9,57.4 57.4,57.4 32.499,0 57.399,-24.9 57.399,-57.4 -0.099,-24.699 -15.4,-45.699 -38.4,-53.4 z"
         id="path3258"
         inkscape:connector-curvature="0" /><path
         d="M 344.25,401.699 V 57.4 c 0,-32.5 -24.9,-57.4 -57.4,-57.4 -32.5,0 -57.4,26.8 -57.4,57.4 v 344.2 c -23,17.201 -38.2,45.9 -38.2,76.5 0,53.5 42.1,95.6 95.6,95.6 53.5,0 95.599,-42.1 95.599,-95.6 0,-30.6 -15.299,-59.2 -38.199,-76.401 z m -57.4,153 c -42.1,0 -76.5,-34.398 -76.5,-76.5 0,-28.699 15.3,-53.5 38.2,-66.898 V 57.4 c 0,-21 17.2,-38.2 38.2,-38.2 21,0 38.199,17.2 38.199,38.2 v 353.799 c 23,13.4 38.201,38.201 38.201,66.9 0.2,42.1 -34.201,76.6 -76.3,76.6 z"
         id="path3260"
         inkscape:connector-curvature="0" /></g></g><g
     id="g3262" /><g
     id="g3264" /><g
     id="g3266" /><g
     id="g3268" /><g
     id="g3270" /><g
     id="g3272" /><g
     id="g3274" /><g
     id="g3276" /><g
     id="g3278" /><g
     id="g3280" /><g
     id="g3282" /><g
     id="g3284" /><g
     id="g3286" /><g
     id="g3288" /><g
     id="g3290" /></svg>