<?xml version="1.0" encoding="UTF-8" standalone="no"?>
<!-- Generator: Adobe Illustrator 15.1.0, SVG Export Plug-In . SVG Version: 6.00 Build 0)  -->

<svg
   xmlns:dc="http://purl.org/dc/elements/1.1/"
   xmlns:cc="http://creativecommons.org/ns#"
   xmlns:rdf="http://www.w3.org/1999/02/22-rdf-syntax-ns#"
   xmlns:svg="http://www.w3.org/2000/svg"
   xmlns="http://www.w3.org/2000/svg"
   xmlns:sodipodi="http://sodipodi.sourceforge.net/DTD/sodipodi-0.dtd"
   xmlns:inkscape="http://www.inkscape.org/namespaces/inkscape"
   version="1.1"
   id="Layer_1"
   x="0px"
   y="0px"
   width="100px"
   height="100px"
   viewBox="0 0 100 100"
   enable-background="new 0 0 100 100"
   xml:space="preserve"
   inkscape:version="0.48.4 r9939"
   sodipodi:docname="wind_spd.svg"><metadata
     id="metadata3127"><rdf:RDF><cc:Work
         rdf:about=""><dc:format>image/svg+xml</dc:format><dc:type
           rdf:resource="http://purl.org/dc/dcmitype/StillImage" /></cc:Work></rdf:RDF></metadata><defs
     id="defs3125" /><sodipodi:namedview
     pagecolor="#ffffff"
     bordercolor="#666666"
     borderopacity="1"
     objecttolerance="10"
     gridtolerance="10"
     guidetolerance="10"
     inkscape:pageopacity="0"
     inkscape:pageshadow="2"
     inkscape:window-width="1212"
     inkscape:window-height="480"
     id="namedview3123"
     showgrid="false"
     inkscape:zoom="2.36"
     inkscape:cx="50"
     inkscape:cy="66.949153"
     inkscape:window-x="501"
     inkscape:window-y="318"
     inkscape:window-maximized="0"
     inkscape:current-layer="Layer_1" /><path
     clip-rule="evenodd"
     d="m 86.366323,52.723553 0,0 h -6.819112 c -2.511707,0 -4.546074,-2.034368 -4.546074,-4.543802 0,-2.509432 2.034367,-4.546074 4.546074,-4.546074 h 6.819112 c 2.509433,0 4.546074,-2.036642 4.546074,-4.543801 0,-2.511707 -2.036641,-4.546075 -4.546074,-4.546075 -2.511705,0 -4.546074,-2.036641 -4.546074,-4.546074 0,-2.509433 2.034369,-4.546075 4.546074,-4.546075 0.311406,0 0.615993,0.03181 0.913761,0.09319 C 94.374233,26.024457 100,31.870708 100,39.089875 100,46.618174 93.896895,52.723552 86.366323,52.723552 z M 63.635951,43.633677 H 59.089876 43.183161 13.635951 c -2.509434,0 -4.543802,2.036642 -4.543802,4.546074 0,2.509434 2.034368,4.543802 4.543802,4.543802 h 4.546074 9.089876 6.819112 9.092148 6.819112 9.087603 4.546075 c 7.532844,0 13.638224,6.107651 13.638224,13.638224 0,7.219166 -5.625768,13.065418 -12.719917,13.545028 C 64.256489,79.968177 63.951903,80 63.635951,80 c -2.509434,0 -4.546075,-2.036642 -4.546075,-4.546075 0,-2.511707 2.036641,-4.546073 4.546075,-4.546073 2.511706,0 4.546074,-2.036643 4.546074,-4.546075 0,-2.509433 -2.034368,-4.546075 -4.546074,-4.546075 H 59.089876 50.002273 43.183161 34.091013 27.271901 18.182025 13.635951 C 6.1053781,61.815702 0,55.710325 0,48.179751 0,40.962858 5.6257672,35.116606 12.719917,34.634723 c 0.297768,-0.05911 0.604628,-0.09092 0.916034,-0.09092 l 0,0 h 29.54721 15.906715 4.546075 c 2.511706,0 4.546074,-2.036641 4.546074,-4.546074 0,-2.509434 -2.034368,-4.546075 -4.546074,-4.546075 -2.509434,0 -4.546075,-2.034369 -4.546075,-4.546075 0,-2.509433 2.036641,-4.546075 4.546075,-4.546075 0.315952,0 0.620538,0.03409 0.918307,0.09319 7.094149,0.479609 12.719917,6.325861 12.719917,13.545029 0,7.528299 -6.10538,13.635949 -13.638224,13.635949 z"
     id="path3121"
     inkscape:connector-curvature="0"
     style="fill-rule:evenodd" /></svg>