<?xml version="1.0" encoding="UTF-8" standalone="no"?>
<!-- Generator: Adobe Illustrator 15.1.0, SVG Export Plug-In . SVG Version: 6.00 Build 0)  -->

<svg
   xmlns:dc="http://purl.org/dc/elements/1.1/"
   xmlns:cc="http://creativecommons.org/ns#"
   xmlns:rdf="http://www.w3.org/1999/02/22-rdf-syntax-ns#"
   xmlns:svg="http://www.w3.org/2000/svg"
   xmlns="http://www.w3.org/2000/svg"
   xmlns:sodipodi="http://sodipodi.sourceforge.net/DTD/sodipodi-0.dtd"
   xmlns:inkscape="http://www.inkscape.org/namespaces/inkscape"
   version="1.1"
   id="Layer_1"
   x="0px"
   y="0px"
   width="100px"
   height="100px"
   viewBox="0 0 100 100"
   enable-background="new 0 0 100 100"
   xml:space="preserve"
   inkscape:version="0.48.4 r9939"
   sodipodi:docname="wind.svg"><metadata
     id="metadata3118"><rdf:RDF><cc:Work
         rdf:about=""><dc:format>image/svg+xml</dc:format><dc:type
           rdf:resource="http://purl.org/dc/dcmitype/StillImage" /></cc:Work></rdf:RDF></metadata><defs
     id="defs3116" /><sodipodi:namedview
     pagecolor="#ffffff"
     bordercolor="#666666"
     borderopacity="1"
     objecttolerance="10"
     gridtolerance="10"
     guidetolerance="10"
     inkscape:pageopacity="0"
     inkscape:pageshadow="2"
     inkscape:window-width="955"
     inkscape:window-height="480"
     id="namedview3114"
     showgrid="false"
     inkscape:zoom="2.36"
     inkscape:cx="50"
     inkscape:cy="50"
     inkscape:window-x="474"
     inkscape:window-y="328"
     inkscape:window-maximized="0"
     inkscape:current-layer="Layer_1" /><path
     clip-rule="evenodd"
     d="m 90.276518,72.182291 v 0.09446 H 88.8893 83.333026 c -2.04471,0 -3.704185,-1.657621 -3.704185,-3.704184 0,-2.044709 1.659475,-3.702331 3.704185,-3.702331 H 88.8893 c 2.04471,0 3.702332,-1.659475 3.702332,-3.704185 0,-2.044709 -1.657622,-3.70233 -3.702332,-3.70233 -2.044709,0 -3.704183,-1.659475 -3.704183,-3.704184 0,-2.046563 1.659474,-3.704184 3.704183,-3.704184 0.255589,0 0.50377,0.02592 0.744542,0.07594 C 95.416072,50.52208 100,55.285661 100,61.166052 100,66.82975 95.756858,71.49517 90.276518,72.182296 z M 70.370233,50.055349 c -2.044709,0 -3.704184,-1.659474 -3.704184,-3.704185 0,-2.044708 1.659475,-3.704184 3.704184,-3.704184 0.255588,0 0.50377,0.02592 0.746393,0.07595 5.780379,0.390791 10.364307,5.15437 10.364307,11.036616 0,5.665548 -4.243143,10.329116 -9.721631,11.01439 v 0.09631 H 70.370233 55.581279 c -7.430593,0 -21.03606,0 -25.951512,0 -2.04471,0 -3.704184,1.659476 -3.704184,3.702332 0,2.046563 1.659474,3.704184 3.704184,3.704184 h 40.740466 1.389069 v 0.09816 c 5.478488,0.683422 9.721631,5.350693 9.721631,11.01439 0,5.880393 -4.583928,10.643974 -10.364307,11.034765 -0.242623,0.04814 -0.492655,0.07592 -0.746393,0.07592 -2.044709,0 -3.704184,-1.659474 -3.704184,-3.704184 0,-2.044709 1.659475,-3.702332 3.704184,-3.702332 2.04471,0 3.704184,-1.659474 3.704184,-3.704184 0,-2.046561 -1.659474,-3.704183 -3.704184,-3.704183 H 29.629767 28.240699 v -0.09631 c -5.480341,-0.685274 -9.723483,-5.352547 -9.723483,-11.016244 0,-1.953956 0.544515,-3.763449 1.431667,-5.352544 C 8.3455263,59.204683 0,48.210666 0,35.240466 0,18.877233 13.264683,5.610699 29.629767,5.610699 c 11.11996,0 20.79714,6.134127 25.864464,15.194563 1.229789,-0.21114 2.474394,-0.37968 3.765303,-0.37968 10.919934,0 19.980368,7.882503 21.85098,18.26533 -2.583667,-1.842831 -5.648879,-3.048543 -8.980794,-3.361546 -2.55033,-4.474655 -7.354657,-7.495416 -12.870186,-7.495416 -2.9652,0 -5.711851,0.889005 -8.026967,2.389198 -2.279925,-9.845721 -11.062544,-17.205934 -21.6028,-17.205934 -12.273813,0 -22.2232514,9.949438 -22.2232514,22.223252 0,12.271961 9.9494384,22.223251 22.2232514,22.223251 4.811735,0 15.098253,0 22.593671,0 h 18.146795 c 2.04471,0 3.704184,-1.659475 3.704184,-3.704184 0,-2.048414 -1.657621,-3.704184 -3.704184,-3.704184 z"
     id="path3112"
     inkscape:connector-curvature="0"
     style="fill-rule:evenodd" /></svg>