<?xml version="1.0" encoding="iso-8859-1"?>
<!-- Generator: Adobe Illustrator 17.1.0, SVG Export Plug-In . SVG Version: 6.00 Build 0)  -->
<!DOCTYPE svg PUBLIC "-//W3C//DTD SVG 1.1//EN" "http://www.w3.org/Graphics/SVG/1.1/DTD/svg11.dtd">
<svg version="1.1" id="Capa_1" xmlns="http://www.w3.org/2000/svg" xmlns:xlink="http://www.w3.org/1999/xlink" x="0px" y="0px"
	 viewBox="0 0 206 206" style="enable-background:new 0 0 206 206;" xml:space="preserve">
<path style="fill:#000001;" d="M200.746,116.124l-28.958-9.089l-10.077-20.208c-1.269-2.545-3.868-4.153-6.712-4.153h-19.5V37.211
	c0-4.142-3.358-7.5-7.5-7.5H7.5c-4.142,0-7.5,3.358-7.5,7.5v116.633c0,4.142,3.358,7.5,7.5,7.5h19.207
	c3.036,8.683,11.306,14.931,21.012,14.931s17.976-6.248,21.012-14.931H128h14.933c3.032,8.691,11.306,14.945,21.018,14.945
	s17.985-6.255,21.018-14.945H198.5c4.142,0,7.5-3.358,7.5-7.5V123.28C206,120.003,203.873,117.106,200.746,116.124z M47.719,161.275
	c-4.001,0-7.257-3.256-7.257-7.257c0-0.226,0.014-0.449,0.034-0.67c0.002-0.025,0.002-0.052,0.005-0.077
	c0.375-3.652,3.47-6.51,7.219-6.51c3.472,0,6.378,2.452,7.088,5.714c0.092,0.471,0.146,0.957,0.152,1.455
	c0.001,0.065,0.01,0.128,0.012,0.192C54.915,158.075,51.686,161.275,47.719,161.275z M100.768,93.022
	c-0.956,2.398-3.065,4.086-5.536,4.568v20.864c0,4.142-3.358,7.5-7.5,7.5H47.768c-4.142,0-7.5-3.358-7.5-7.5V97.59
	c-2.471-0.482-4.579-2.17-5.536-4.568c-1.137-2.852-0.421-6.108,1.807-8.22L62.59,60.103c2.894-2.743,7.427-2.744,10.32,0
	l26.051,24.699C101.189,86.914,101.905,90.17,100.768,93.022z M163.95,161.289c-4.001,0-7.257-3.256-7.257-7.257
	s3.256-7.257,7.257-7.257c0.983,0,1.92,0.199,2.776,0.554c2.578,1.093,4.412,3.641,4.446,6.602c0.001,0.119,0.015,0.236,0.022,0.354
	C171.06,158.169,167.866,161.289,163.95,161.289z"/>
<g>
</g>
<g>
</g>
<g>
</g>
<g>
</g>
<g>
</g>
<g>
</g>
<g>
</g>
<g>
</g>
<g>
</g>
<g>
</g>
<g>
</g>
<g>
</g>
<g>
</g>
<g>
</g>
<g>
</g>
</svg>
